<?xml version="1.0" encoding="UTF-8" standalone="no"?>
<!DOCTYPE svg PUBLIC "-//W3C//DTD SVG 1.1//EN" "http://www.w3.org/Graphics/SVG/1.1/DTD/svg11.dtd">
<svg xmlns="http://www.w3.org/2000/svg" version="1.1" viewBox="0.00 0.00 417.00 417.00">
    <path fill="#ffffff"
        d="
  M 83.68 160.10
  C 93.47 161.92 98.40 167.33 98.46 177.27
  Q 98.51 187.24 98.56 197.24
  C 98.62 208.22 104.58 210.15 113.62 211.25
  Q 114.25 211.33 114.25 211.96
  L 114.25 220.97
  Q 114.25 221.42 113.80 221.43
  C 100.19 221.83 86.81 216.16 86.23 200.67
  Q 86.00 194.65 86.01 177.25
  C 86.02 167.83 77.13 164.95 69.35 165.07
  A 0.59 0.58 -0.5 0 1 68.75 164.49
  L 68.75 155.01
  Q 68.75 154.54 69.22 154.53
  C 79.61 154.17 85.93 151.48 85.98 139.91
  Q 86.01 130.21 86.04 120.51
  C 86.07 104.31 99.64 97.99 113.80 98.11
  Q 114.25 98.12 114.25 98.56
  L 114.25 108.01
  Q 114.25 108.55 113.71 108.57
  C 105.59 108.84 98.61 112.46 98.52 121.43
  Q 98.42 130.90 98.49 140.36
  C 98.57 150.88 94.76 157.21 83.68 159.30
  A 0.41 0.41 0.0 0 0 83.68 160.10
  Z"
    />
    <path fill="#ffffff"
        d="
  M 200.25 138.25
  L 242.00 138.25
  Q 242.50 138.25 242.50 137.75
  L 242.50 98.50
  Q 242.50 98.00 243.00 98.00
  L 254.99 98.00
  Q 255.49 98.00 255.49 98.51
  Q 255.52 134.51 255.49 170.50
  C 255.48 201.41 227.00 205.25 204.18 196.85
  Q 203.75 196.69 203.75 196.23
  L 203.75 184.99
  A 0.60 0.60 0.0 0 1 204.56 184.43
  C 219.86 190.38 240.77 193.20 242.34 170.80
  Q 242.82 163.91 242.38 152.12
  Q 242.36 151.57 241.82 151.57
  L 200.41 151.32
  Q 199.80 151.32 199.80 151.93
  C 199.66 160.90 200.57 170.28 198.71 179.01
  C 193.53 203.31 167.36 204.07 148.47 196.73
  Q 148.00 196.55 148.00 196.04
  L 148.00 184.60
  A 0.33 0.33 0.0 0 1 148.46 184.30
  C 156.83 187.86 169.37 190.70 177.37 186.91
  C 186.16 182.75 187.02 172.57 187.01 163.75
  Q 187.00 131.11 187.00 98.51
  A 0.51 0.51 0.0 0 1 187.51 98.00
  L 199.00 98.00
  A 0.75 0.75 0.0 0 1 199.75 98.75
  L 199.75 137.75
  Q 199.75 138.25 200.25 138.25
  Z"
    />
    <path fill="#ffffff"
        d="
  M 333.60 159.72
  C 314.05 156.22 318.28 138.90 318.22 124.63
  C 318.17 113.10 314.53 109.20 302.96 108.47
  Q 302.50 108.44 302.50 107.98
  L 302.50 98.56
  Q 302.50 98.22 302.84 98.22
  C 313.27 98.07 325.64 101.50 329.39 111.92
  Q 330.64 115.40 330.73 124.36
  C 330.88 137.82 326.38 155.04 347.00 154.51
  A 0.98 0.98 0.0 0 1 348.00 155.49
  L 348.00 164.70
  Q 348.00 165.13 347.57 165.15
  C 334.99 165.89 330.74 169.07 330.75 182.07
  Q 330.76 191.29 330.74 200.50
  C 330.71 215.62 315.89 221.93 303.02 221.51
  Q 302.50 221.49 302.50 220.96
  L 302.50 211.79
  Q 302.50 211.32 302.97 211.26
  C 310.32 210.41 318.18 208.04 318.20 199.18
  Q 318.23 189.31 318.29 179.44
  C 318.36 168.03 322.35 162.70 333.61 160.24
  A 0.27 0.26 -46.2 0 0 333.60 159.72
  Z"
    />
    <path fill="#ffffff"
        d="
  M 287.12 246.98
  C 288.57 244.30 289.91 240.93 293.20 242.47
  Q 293.68 242.69 293.31 243.06
  C 291.63 244.74 289.98 247.43 287.46 247.53
  Q 286.80 247.56 287.12 246.98
  Z"
    />
    <path fill="#ffffff"
        d="
  M 120.19 267.56
  Q 118.48 266.85 119.44 264.85
  Q 119.65 264.41 120.09 264.61
  C 124.08 266.36 128.43 266.10 128.61 260.78
  Q 128.90 252.69 128.70 244.60
  Q 128.68 244.00 129.28 244.00
  L 131.05 244.00
  Q 131.72 244.00 131.73 244.67
  Q 131.80 252.85 131.74 260.98
  C 131.69 267.56 125.60 269.84 120.19 267.56
  Z"
    />
    <path fill="#ffffff"
        d="
  M 221.93 267.86
  C 220.24 267.40 219.60 266.54 220.38 264.86
  A 0.52 0.52 0.0 0 1 221.08 264.61
  C 224.99 266.45 229.43 266.04 229.61 260.78
  Q 229.90 252.69 229.70 244.60
  Q 229.68 244.00 230.28 244.00
  L 232.05 244.00
  Q 232.71 244.00 232.72 244.67
  Q 232.81 252.85 232.74 260.99
  C 232.69 267.49 227.29 269.35 221.93 267.86
  Z"
    />
    <path fill="#ffffff"
        d="
  M 170.50 256.49
  C 170.84 251.12 164.51 251.46 161.35 253.23
  A 0.56 0.56 0.0 0 1 160.59 253.02
  L 159.85 251.75
  Q 159.57 251.29 160.06 251.04
  C 163.79 249.16 170.94 248.44 172.75 253.07
  C 174.00 256.27 173.27 263.62 173.24 267.23
  Q 173.23 267.80 172.69 267.96
  Q 170.63 268.56 170.58 266.51
  A 0.52 0.51 -23.6 0 0 169.70 266.17
  C 160.99 275.01 149.12 256.57 169.94 257.01
  Q 170.47 257.02 170.50 256.49
  Z
  M 162.80 265.51
  Q 168.62 266.99 170.46 261.74
  Q 171.22 259.59 168.96 259.27
  C 166.48 258.92 161.97 259.26 161.14 262.75
  A 2.29 2.29 0.0 0 0 162.80 265.51
  Z"
    />
    <path fill="#ffffff"
        d="
  M 182.88 252.00
  C 186.52 248.44 194.15 248.32 194.49 254.82
  Q 194.82 261.04 194.76 267.28
  Q 194.75 268.00 194.03 268.00
  L 192.27 268.00
  A 0.60 0.60 0.0 0 1 191.67 267.38
  C 191.85 261.90 193.19 252.59 188.47 252.22
  C 180.87 251.63 182.68 261.50 182.79 267.39
  Q 182.80 268.00 182.19 268.00
  L 180.50 268.00
  Q 179.75 268.00 179.75 267.25
  L 179.75 250.62
  Q 179.75 250.00 180.38 250.00
  L 181.50 250.00
  Q 182.25 250.00 182.25 250.75
  L 182.25 251.73
  A 0.37 0.37 0.0 0 0 182.88 252.00
  Z"
    />
    <path fill="#ffffff"
        d="
  M 247.3164 268.5175
  A 9.54 8.42 88.7 0 1 238.6822 259.1710
  A 9.54 8.42 88.7 0 1 246.8836 249.4425
  A 9.54 8.42 88.7 0 1 255.5178 258.7890
  A 9.54 8.42 88.7 0 1 247.3164 268.5175
  Z
  M 247.1861 266.0195
  A 7.05 5.33 89.3 0 0 252.4296 258.9049
  A 7.05 5.33 89.3 0 0 247.0139 251.9205
  A 7.05 5.33 89.3 0 0 241.7704 259.0351
  A 7.05 5.33 89.3 0 0 247.1861 266.0195
  Z"
    />
    <path fill="#ffffff"
        d="
  M 269.11 261.04
  C 265.82 259.76 258.53 257.19 261.41 252.13
  C 263.18 249.02 269.69 249.15 272.48 250.34
  Q 273.89 250.95 272.71 252.54
  Q 272.45 252.89 272.03 252.77
  Q 268.78 251.90 265.40 252.43
  A 1.94 1.93 3.5 0 0 263.83 253.81
  C 262.70 257.80 273.46 257.38 273.67 262.77
  C 273.94 269.43 265.16 268.86 260.97 267.40
  Q 260.50 267.23 260.50 266.74
  L 260.50 264.80
  Q 260.50 264.20 261.03 264.49
  C 263.03 265.60 268.91 266.90 270.31 264.50
  A 2.41 2.40 26.0 0 0 269.11 261.04
  Z"
    />
    <path fill="#ffffff"
        d="
  M 283.75 259.50
  A 0.56 0.56 0.0 0 0 283.18 260.10
  C 283.59 266.70 290.16 266.76 294.84 264.59
  Q 295.50 264.28 295.50 265.00
  L 295.50 266.46
  Q 295.50 267.00 294.99 267.21
  C 285.55 270.98 276.79 264.71 280.95 254.39
  C 284.30 246.10 297.13 248.91 296.18 258.89
  Q 296.12 259.50 295.50 259.50
  L 283.75 259.50
  Z
  M 283.54 257.03
  L 293.12 256.95
  A 0.13 0.13 0.0 0 0 293.25 256.82
  L 293.25 256.75
  A 4.88 4.74 -0.5 0 0 288.33 252.05
  L 288.25 252.05
  A 4.88 4.74 -0.5 0 0 283.41 256.83
  L 283.41 256.90
  A 0.13 0.13 0.0 0 0 283.54 257.03
  Z"
    />
    <path fill="#ffffff"
        d="
  M 150.23 266.18
  C 145.91 270.03 138.63 269.05 138.53 262.07
  Q 138.45 256.38 138.52 250.67
  Q 138.53 250.00 139.20 250.00
  L 140.80 250.00
  Q 141.51 250.00 141.50 250.70
  Q 141.50 256.37 141.49 261.98
  C 141.49 264.42 142.83 265.69 145.24 265.84
  C 152.41 266.28 150.54 255.03 150.49 250.74
  A 0.73 0.73 0.0 0 1 151.22 250.00
  L 152.75 250.00
  Q 153.50 250.00 153.50 250.75
  L 153.50 267.25
  A 0.71 0.71 0.0 0 1 152.99 267.93
  Q 150.77 268.62 151.00 266.58
  A 0.47 0.46 72.3 0 0 150.23 266.18
  Z"
    />
    <path fill="#ffffff"
        d="
  M 252.57 284.27
  L 252.47 276.02
  Q 252.46 275.50 252.98 275.50
  L 255.00 275.50
  Q 255.50 275.50 255.50 276.00
  L 255.50 300.25
  Q 255.50 301.00 254.75 301.00
  L 253.70 301.00
  A 0.62 0.62 0.0 0 1 253.09 300.50
  L 252.90 299.52
  Q 252.78 298.94 252.32 299.30
  C 241.69 307.50 236.01 290.59 242.45 284.54
  Q 246.71 280.54 252.31 284.41
  Q 252.58 284.60 252.57 284.27
  Z
  M 247.7453 299.0900
  A 7.09 4.92 90.2 0 0 252.6900 292.0172
  A 7.09 4.92 90.2 0 0 247.7947 284.9100
  A 7.09 4.92 90.2 0 0 242.8500 291.9828
  A 7.09 4.92 90.2 0 0 247.7453 299.0900
  Z"
    />
    <path fill="#ffffff"
        d="
  M 142.50 290.25
  L 142.50 300.50
  A 0.50 0.50 0.0 0 1 142.00 301.00
  L 139.75 301.00
  A 0.50 0.50 0.0 0 1 139.25 300.50
  L 139.25 277.50
  A 0.50 0.50 0.0 0 1 139.75 277.00
  L 142.00 277.00
  A 0.50 0.50 0.0 0 1 142.50 277.50
  L 142.50 286.50
  A 0.50 0.50 0.0 0 0 143.00 287.00
  L 151.25 287.00
  A 0.50 0.50 0.0 0 0 151.75 286.50
  L 151.75 277.50
  A 0.50 0.50 0.0 0 1 152.25 277.00
  L 154.25 277.00
  A 0.50 0.50 0.0 0 1 154.75 277.50
  L 154.75 300.50
  A 0.50 0.50 0.0 0 1 154.25 301.00
  L 152.25 301.00
  A 0.50 0.50 0.0 0 1 151.75 300.50
  L 151.75 290.25
  A 0.50 0.50 0.0 0 0 151.25 289.75
  L 143.00 289.75
  A 0.50 0.50 0.0 0 0 142.50 290.25
  Z"
    />
    <path fill="#ffffff"
        d="
  M 206.77 285.99
  C 206.73 288.58 206.14 295.17 207.33 297.26
  C 208.51 299.35 211.58 298.85 213.69 298.55
  Q 214.18 298.48 214.36 298.93
  Q 215.07 300.69 213.53 301.01
  C 201.34 303.61 203.84 293.39 203.76 286.02
  A 0.53 0.53 0.0 0 0 203.23 285.50
  L 199.75 285.50
  Q 199.00 285.50 199.00 284.75
  L 199.00 283.80
  Q 199.00 283.34 199.46 283.29
  L 203.31 282.89
  A 0.72 0.72 0.0 0 0 203.95 282.25
  L 204.31 278.61
  Q 204.37 278.04 204.95 278.02
  L 206.11 277.99
  Q 206.75 277.98 206.75 278.61
  L 206.75 282.38
  Q 206.75 283.00 207.38 283.00
  L 213.37 283.00
  Q 214.00 283.00 214.00 283.62
  L 214.00 284.87
  Q 214.00 285.50 213.38 285.50
  L 207.27 285.50
  Q 206.78 285.50 206.77 285.99
  Z"
    />
    <path fill="#ffffff"
        d="
  M 184.50 297.96
  L 184.50 285.88
  Q 184.50 285.25 183.88 285.25
  L 180.65 285.25
  Q 180.01 285.25 179.83 284.64
  L 179.55 283.68
  Q 179.35 283.00 180.05 283.00
  L 186.23 283.00
  A 0.84 0.83 -15.0 0 1 186.95 283.41
  Q 187.53 284.37 187.09 285.35
  Q 187.03 285.49 187.16 285.56
  L 187.49 285.76
  Q 187.68 285.87 187.79 285.69
  Q 190.50 281.21 195.65 283.09
  Q 196.18 283.28 196.08 283.83
  L 195.83 285.21
  Q 195.71 285.87 195.06 285.69
  C 186.75 283.40 187.58 292.55 187.82 298.17
  Q 187.84 298.63 188.29 298.65
  L 192.34 298.83
  A 0.69 0.69 0.0 0 1 193.00 299.52
  L 193.00 300.25
  Q 193.00 301.00 192.25 301.00
  L 179.50 301.00
  Q 179.16 301.00 179.06 300.66
  Q 178.61 299.07 180.07 298.95
  Q 182.08 298.79 184.09 298.44
  Q 184.50 298.37 184.50 297.96
  Z"
    />
    <path fill="#ffffff"
        d="
  M 232.51 289.41
  C 232.69 284.06 226.50 284.40 223.31 286.26
  A 0.57 0.57 0.0 0 1 222.51 286.02
  L 221.92 284.81
  Q 221.64 284.25 222.20 283.97
  C 225.91 282.14 232.96 281.50 234.75 286.07
  C 236.02 289.30 235.26 296.79 235.24 300.47
  Q 235.24 301.00 234.71 301.00
  L 233.38 301.00
  A 0.63 0.63 0.0 0 1 232.75 300.37
  L 232.75 299.25
  Q 232.75 298.29 232.05 298.95
  C 228.75 302.01 221.15 302.91 220.47 296.75
  C 219.74 290.18 226.82 290.00 231.91 289.99
  Q 232.49 289.99 232.51 289.41
  Z
  M 223.83 293.90
  C 220.45 300.97 233.51 300.56 232.41 292.79
  Q 232.35 292.37 231.94 292.32
  Q 227.93 291.79 224.30 293.43
  A 0.98 0.98 0.0 0 0 223.83 293.90
  Z"
    />
    <path fill="#ffffff"
        d="
  M 268.2098 301.4995
  A 9.53 8.42 89.4 0 1 259.6905 292.0582
  A 9.53 8.42 89.4 0 1 268.0102 282.4405
  A 9.53 8.42 89.4 0 1 276.5295 291.8818
  A 9.53 8.42 89.4 0 1 268.2098 301.4995
  Z
  M 268.1737 298.9896
  A 7.04 5.31 89.4 0 0 273.4097 291.8944
  A 7.04 5.31 89.4 0 0 268.0263 284.9104
  A 7.04 5.31 89.4 0 0 262.7903 292.0056
  A 7.04 5.31 89.4 0 0 268.1737 298.9896
  Z"
    />
    <path fill="#ffffff"
        d="
  M 171.15 299.15
  C 168.59 302.21 162.71 301.99 160.70 299.10
  C 158.60 296.09 159.51 287.60 159.49 283.52
  Q 159.49 283.00 160.02 283.00
  L 161.81 283.00
  Q 162.51 283.00 162.51 283.70
  Q 162.48 289.38 162.49 294.98
  C 162.50 297.40 163.83 298.72 166.25 298.84
  C 173.37 299.19 171.55 288.05 171.48 283.74
  A 0.74 0.73 -0.4 0 1 172.22 283.00
  L 173.75 283.00
  Q 174.50 283.00 174.50 283.75
  L 174.50 300.32
  Q 174.50 300.95 173.87 300.97
  L 172.75 301.01
  Q 172.19 301.03 172.05 300.49
  L 171.75 299.29
  Q 171.59 298.63 171.15 299.15
  Z"
    />
</svg>